<svg width="16" height="22" viewBox="0 0 16 22" fill="none" xmlns="http://www.w3.org/2000/svg">
<path d="M5.95973 9.58686C6.53244 10.0814 7.21253 10.3287 8 10.3287C8.78747 10.3287 9.44966 10.0814 9.98658 9.58686C10.5593 9.05931 10.8456 8.43284 10.8456 7.70746C10.8456 6.98208 10.5593 6.3721 9.98658 5.87752C9.44966 5.34998 8.78747 5.0862 8 5.0862C7.21253 5.0862 6.53244 5.34998 5.95973 5.87752C5.42282 6.3721 5.15436 6.98208 5.15436 7.70746C5.15436 8.43284 5.42282 9.05931 5.95973 9.58686ZM2.30872 2.5144C3.88367 1.06364 5.78076 0.338257 8 0.338257C10.2192 0.338257 12.0984 1.06364 13.6376 2.5144C15.2125 3.93219 16 5.66321 16 7.70746C16 8.72959 15.7136 9.90009 15.1409 11.219C14.604 12.5378 13.9418 13.7743 13.1544 14.9283C12.3669 16.0823 11.5794 17.1704 10.7919 18.1925C10.0403 19.1817 9.39597 19.973 8.85906 20.5665L8 21.4073C7.78523 21.1765 7.49888 20.8797 7.14094 20.517C6.783 20.1214 6.1387 19.363 5.20805 18.242C4.2774 17.0879 3.45414 15.9834 2.73826 14.9283C2.05817 13.8402 1.43177 12.6203 0.85906 11.2684C0.286353 9.91657 0 8.72959 0 7.70746C0 5.66321 0.769575 3.93219 2.30872 2.5144Z" fill="#FC9511"/>
</svg>
