<svg width="12" height="25" viewBox="0 0 12 25" fill="none" xmlns="http://www.w3.org/2000/svg">
<path d="M9.98438 16.3739V4.40285H2.01562V16.3739H9.98438ZM9.98438 0.428101C10.5156 0.428101 10.9844 0.630735 11.3906 1.036C11.7969 1.44127 12 1.90889 12 2.43886V18.3846C12 18.9146 11.7969 19.3822 11.3906 19.7875C10.9844 20.1927 10.5156 20.3954 9.98438 20.3954H2.01562C1.48438 20.3954 1.01562 20.1927 0.609375 19.7875C0.203125 19.3822 0 18.9146 0 18.3846V2.43886C0 1.90889 0.203125 1.44127 0.609375 1.036C1.01562 0.630735 1.48438 0.428101 2.01562 0.428101H9.98438ZM9 24.3701V22.3594H11.0156V24.3701H9ZM5.01562 24.3701V22.3594H6.98438V24.3701H5.01562ZM0.984375 24.3701V22.3594H3V24.3701H0.984375Z" fill="#FC9511"/>
</svg>
